<svg xmlns="http://www.w3.org/2000/svg" width="17" height="19" viewBox="0 0 17 19"><defs><clipPath id="z0jua"><path fill="#fff" d="M11.014 0C14.32 0 17 2.718 17 6.071c0 3.353-2.68 6.071-5.986 6.071-3.306 0-5.986-2.718-5.986-6.07C5.028 2.717 7.708 0 11.014 0z"/></clipPath><mask id="z0juc" width="2" height="2" x="-1" y="-1"><path fill="#fff" d="M0 10h8v8H0z"/><path d="M5.995 10.847l1.058 1.073-5.986 6.071-1.058-1.073z"/></mask><filter id="z0jub" width="28" height="29" x="-10" y="0" filterUnits="userSpaceOnUse"><feOffset dy="1" in="SourceGraphic" result="FeOffset1111Out"/><feGaussianBlur in="FeOffset1111Out" result="FeGaussianBlur1112Out" stdDeviation="0 0"/></filter><clipPath id="z0jud"><path fill="#fff" d="M5.995 10.847l1.058 1.073-5.986 6.071-1.058-1.073z"/></clipPath></defs><g><g><path fill="#1c242a" d="M11.014 0C14.32 0 17 2.718 17 6.071c0 3.353-2.68 6.071-5.986 6.071-3.306 0-5.986-2.718-5.986-6.07C5.028 2.717 7.708 0 11.014 0z"/><path fill="none" stroke="#000" stroke-linecap="round" stroke-linejoin="round" stroke-miterlimit="20" stroke-width="4" d="M11.014 0C14.32 0 17 2.718 17 6.071c0 3.353-2.68 6.071-5.986 6.071-3.306 0-5.986-2.718-5.986-6.07C5.028 2.717 7.708 0 11.014 0z" clip-path="url(&quot;#z0jua&quot;)"/></g><g><g filter="url(#z0jub)"><path fill="none" d="M5.995 10.847l1.058 1.073-5.986 6.071-1.058-1.073z" mask="url(&quot;#z0juc&quot;)"/><path fill="#80633b" d="M5.995 10.847l1.058 1.073-5.986 6.071-1.058-1.073z"/></g><path fill="#1c242a" d="M5.995 10.847l1.058 1.073-5.986 6.071-1.058-1.073z"/><path fill="none" stroke="#000" stroke-linecap="round" stroke-linejoin="round" stroke-miterlimit="20" stroke-width="4" d="M5.995 10.847v0l1.058 1.073v0l-5.986 6.071v0L.009 16.918v0z" clip-path="url(&quot;#z0jud&quot;)"/></g></g></svg>